Coordinates
version=1
nRows=9
nColumns=63
inDegrees=yes

Units are S.I. units (second, meters, Newtons, ...)
If the header above contains a line with 'inDegrees', this indicates whether rotational values are in degrees (yes) or radians (no).

endheader
time	pelvis_tilt	pelvis_list	pelvis_rotation	pelvis_tx	pelvis_ty	pelvis_tz	hip_flexion_r	hip_adduction_r	hip_rotation_r	knee_angle_r	knee_angle_r_beta	ankle_angle_r	subtalar_angle_r	mtp_angle_r	hip_flexion_l	hip_adduction_l	hip_rotation_l	knee_angle_l	knee_angle_l_beta	ankle_angle_l	subtalar_angle_l	mtp_angle_l	L5_S1_Flex_Ext	L5_S1_Lat_Bending	L5_S1_axial_rotation	L4_L5_Flex_Ext	L4_L5_Lat_Bending	L4_L5_axial_rotation	L3_L4_Flex_Ext	L3_L4_Lat_Bending	L3_L4_axial_rotation	L2_L3_Flex_Ext	L2_L3_Lat_Bending	L2_L3_axial_rotation	L1_L2_Flex_Ext	L1_L2_Lat_Bending	L1_L2_axial_rotation	L1_T12_Flex_Ext	L1_T12_Lat_Bending	L1_T12_axial_rotation	Abs_r3	Abs_r2	Abs_r1	Abs_t1	Abs_t2	neck_flexion	neck_bending	neck_rotation	arm_flex_r	arm_add_r	arm_rot_r	elbow_flex_r	pro_sup_r	wrist_flex_r	wrist_dev_r	arm_flex_l	arm_add_l	arm_rot_l	elbow_flex_l	pro_sup_l	wrist_flex_l	wrist_dev_l
      2.30000000	      2.76967660	     -2.44633054	     85.40103086	      0.17717494	      0.91973564	      0.51162754	     11.30258290	      3.48359336	     -8.27114024	     13.08478190	      0.22837253	     28.37945239	     -0.18390710	      0.00000000	      6.84765824	     -3.77963891	     -9.50436510	      6.15801607	      0.10747766	     31.50744115	     10.97246608	      0.00000000	      0.22532614	      0.10962398	      0.20001152	      0.41845317	      0.14579989	      0.21251224	      0.37018832	      0.26653973	      0.21251224	      0.25752525	      0.26653973	      0.17501008	      0.20923785	      0.22354521	      0.16250936	      0.12875136	      0.16980754	      0.15000864	      1.60948208	      1.24008833	      1.11240408	      0.00000000	      0.00000000	     23.08437749	     -7.92332357	      1.41563667	     15.20061800	     -4.74429493	     45.10202854	     46.19519774	     65.57784312	      1.58401255	     11.43264421	     12.16969204	     -7.42322259	     44.52826873	     50.56940409	     66.84153868	     -9.50910650	      1.10266526
      2.31666667	      2.68485803	     -2.31610653	     84.74797646	      0.17733487	      0.91970927	      0.51178765	     11.26534303	      3.42435843	     -7.65319458	     13.21410463	      0.23062963	     28.63923592	      0.50356546	      0.00000000	      6.52247000	     -3.68866157	    -10.31439067	      5.98584804	      0.10447276	     31.50982119	     10.85095795	      0.00000000	      0.18909192	      0.11687118	      0.29891508	      0.35116261	      0.15543867	      0.31759727	      0.31065912	      0.28416058	      0.31759727	      0.21611316	      0.28416058	      0.26155069	      0.17559076	      0.23832371	      0.24286850	      0.10804713	      0.18103346	      0.22418631	      1.35066470	      1.32207014	      1.66247600	      0.00000000	      0.00000000	     23.19116524	     -8.41127906	      1.52335673	     15.23902991	     -4.82477494	     44.53367534	     46.43842839	     69.29927963	      2.64974309	     11.47575715	     12.22460725	     -7.44600161	     44.56616310	     51.06747253	     60.60865103	     -8.96805175	      2.01309121
      2.33333333	      2.63773532	     -2.34860947	     84.59645727	      0.17734084	      0.91950547	      0.51205375	     11.34771814	      3.40167080	     -7.26765150	     13.26504060	      0.23151863	     28.66859892	      0.63824630	      0.00000000	      6.53917732	     -3.64456815	    -10.59107889	      5.99773431	      0.10468021	     31.47775646	     10.60170151	      0.00000000	      0.17997718	      0.11598542	      0.32833829	      0.33423562	      0.15426060	      0.34885943	      0.29568451	      0.28200694	      0.34885943	      0.20569592	      0.28200694	      0.28729600	      0.16712681	      0.23651746	      0.26677486	      0.10283896	      0.17966141	      0.24625371	      1.28555901	      1.31205023	      1.82611904	      0.00000000	      0.00000000	     23.16508219	     -8.40899622	      1.27390487	     15.27919295	     -4.89961014	     44.49410639	     46.69806147	     69.85593551	      2.58004853	     11.34778666	     12.30481549	     -7.54225914	     44.53618538	     51.41792521	     60.37433812	     -8.94326313	      2.62636978
      2.35000000	      2.58690857	     -2.50799544	     84.66727448	      0.17711036	      0.91911633	      0.51251816	     11.63832114	      3.33879422	     -7.29346288	     13.46889630	      0.23507659	     28.72504290	      0.69716746	      0.00000000	      6.79431268	     -3.60645626	    -10.59266275	      6.13787524	      0.10712613	     31.43325432	     10.39584043	      0.00000000	      0.19249094	      0.11674671	      0.32727352	      0.35747493	      0.15527313	      0.34772812	      0.31624337	      0.28385796	      0.34772812	      0.21999790	      0.28385796	      0.28636433	      0.17874709	      0.23806990	      0.26590974	      0.10998933	      0.18084066	      0.24545514	      1.37494356	      1.32066218	      1.82019716	      0.00000000	      0.00000000	     23.08318439	     -8.30974615	      1.20103328	     15.34856871	     -4.95983369	     44.47765027	     46.89595390	     69.57579952	      2.52402249	     11.24589565	     12.35832243	     -7.56241207	     44.54804306	     51.59862099	     60.13213232	     -8.81866529	      2.72911832
      2.36666667	      2.67803033	     -2.26130540	     84.72359919	      0.17700380	      0.91923231	      0.51266637	     11.19312090	      3.42046014	     -7.20862015	     13.07818028	      0.22825731	     28.80112576	      1.24564719	      0.00000000	      6.53280637	     -3.67808694	    -10.68155850	      6.19420059	      0.10810919	     31.50976875	     10.33940674	      0.00000000	      0.14012651	      0.12744052	      0.34751077	      0.26022894	      0.16949589	      0.36923020	      0.23021385	      0.30985887	      0.36923020	      0.16015059	      0.30985887	      0.30407193	      0.13012148	      0.25987670	      0.28235250	      0.08006829	      0.19740536	      0.26063308	      1.00090966	      1.44163262	      1.93275066	      0.00000000	      0.00000000	     23.02968584	     -8.30413004	      0.66675967	     15.45679039	     -5.26629868	     44.58017742	     47.44661363	     69.10290893	      2.23771941	     10.84449246	     12.55227376	     -7.64364079	     44.72636569	     51.93457339	     59.43875274	     -8.61822712	      3.20821390
      2.38333333	      2.72036002	     -2.29173246	     84.63641596	      0.17729831	      0.91907112	      0.51311665	     11.27164986	      3.54699625	     -6.59153661	     13.03459918	      0.22749667	     28.86959188	      0.95926938	      0.00000000	      6.60353550	     -3.82262238	    -11.89648273	      6.35505651	      0.11091666	     31.73607043	     11.61904223	      0.00000000	      0.13622561	      0.13047881	      0.46681171	      0.25298458	      0.17353681	      0.49598744	      0.22380506	      0.31724617	      0.49598744	      0.15569225	      0.31724617	      0.40846024	      0.12649910	      0.26607238	      0.37928451	      0.07783931	      0.20211167	      0.35010878	      0.97304592	      1.47600234	      2.59626667	      0.00000000	      0.00000000	     22.83495066	     -8.38744632	     -0.34876493	     14.91860124	     -5.33387207	     42.78456739	     48.06102536	     72.74957256	      2.41023276	      9.98207335	     12.95533389	     -7.49587806	     45.27310949	     51.90784765	     59.20578342	     -8.77155526	      3.62261295
      2.40000000	      2.81029740	     -2.18772564	     84.78409628	      0.17722436	      0.91906259	      0.51341735	     11.14583558	      3.63881823	     -6.59795470	     12.84329907	      0.22415786	     29.15137665	      1.12302224	      0.00000000	      6.53457424	     -3.90509647	    -11.73137507	      6.43320001	      0.11228052	     31.83689311	     11.53581148	      0.00000000	      0.11627518	      0.14174268	      0.48533807	      0.21593463	      0.18851777	      0.51567170	      0.19102849	      0.34463316	      0.51567170	      0.13289090	      0.34463316	      0.42467081	      0.10797313	      0.28904168	      0.39433718	      0.06643964	      0.21955942	      0.36400355	      0.83054196	      1.60342159	      2.69930472	      0.00000000	      0.00000000	     22.68240471	     -8.13542629	     -0.48980219	     14.90012764	     -5.52822721	     42.53873449	     48.51999070	     72.64597312	      2.41829015	      9.59840992	     13.06825991	     -7.35478307	     45.20213379	     51.93953222	     58.72977200	     -8.80164576	      3.51287610
      2.41666667	      2.88602144	     -2.14893100	     84.96240315	      0.17723028	      0.91901489	      0.51372881	     11.13129348	      3.71236236	     -6.63394637	     12.71946339	      0.22199652	     29.48626137	      1.27040669	      0.00000000	      6.54340619	     -3.99160550	    -11.65019810	      6.51359061	      0.11368360	     31.87556886	     11.60085666	      0.00000000	      0.11031823	      0.15065911	      0.51577847	      0.20487198	      0.20037662	      0.54801462	      0.18124182	      0.36631256	      0.54801462	      0.12608270	      0.36631256	      0.45130616	      0.10244151	      0.30722406	      0.41907001	      0.06303584	      0.23337096	      0.38683385	      0.78799208	      1.70428600	      2.86860511	      0.00000000	      0.00000000	     22.53167472	     -7.90646519	     -0.61509663	     14.85516599	     -5.70484755	     42.27246152	     48.88911217	     72.85548814	      2.37450556	      9.17965821	     13.21401449	     -7.17688981	     45.17538841	     51.89732942	     58.33239725	     -8.83461375	      3.39843408
      2.43333333	      2.94608590	     -2.13940380	     85.03149762	      0.17742138	      0.91899044	      0.51413377	     11.15834903	      3.79492416	     -6.74656730	     12.60054418	      0.21992098	     29.72842777	      1.39551077	      0.00000000	      6.55077793	     -4.06278721	    -11.34478556	      6.54466806	      0.11422601	     31.75488732	     11.32119161	      0.00000000	      0.10934123	      0.15745140	      0.54368809	      0.20305759	      0.20941036	      0.57766859	      0.17963670	      0.38282733	      0.57766859	      0.12496609	      0.38282733	      0.47572708	      0.10153426	      0.32107489	      0.44174657	      0.06247758	      0.24389222	      0.40776607	      0.78101344	      1.78112172	      3.02383005	      0.00000000	      0.00000000	     22.43275354	     -7.72644721	     -0.73793842	     14.87691212	     -5.82624260	     42.20294231	     49.14569012	     72.78120692	      2.29477851	      8.81892095	     13.38265345	     -7.10066945	     45.21692882	     51.84377660	     57.89720426	     -8.85736607	      3.31791905
